<?xml version="1.0" encoding="utf-8"?>
<!-- Generator: Adobe Illustrator 23.0.3, SVG Export Plug-In . SVG Version: 6.00 Build 0)  -->
<svg version="1.1" id="Layer_1" xmlns="http://www.w3.org/2000/svg" xmlns:xlink="http://www.w3.org/1999/xlink" x="0px" y="0px"
	 viewBox="0 0 96 96" style="enable-background:new 0 0 96 96;" xml:space="preserve">
<style type="text/css">
	.st0{enable-background:new    ;}
	.st1{fill:#EEEEEE;}
</style>
<g class="st0">
	<g>
		<path class="st1" d="M73.2,48c0,2.9-0.3,5.7-1.1,8.4c-0.8,2.6-1.8,5.2-3.1,7.5c-1.3,2.3-2.9,4.4-4.9,6.4c-2,2-4.1,3.6-6.4,4.9
			c-2.3,1.3-4.9,2.5-7.5,3.1c-2.6,0.8-5.4,1.1-8.4,1.1h-19V16.6h19c2.9,0,5.7,0.3,8.4,1.1c2.6,0.8,5.2,1.8,7.5,3.1s4.4,2.9,6.4,4.9
			c2,2,3.6,4.1,4.9,6.4c1.3,2.3,2.5,4.9,3.1,7.5C72.9,42.4,73.2,45.2,73.2,48z M60.6,48c0-2.6-0.5-5.1-1.5-7.4
			c-1-2.3-2.3-4.3-4.1-6.1c-1.6-1.6-3.8-3.1-6.1-4.1c-2.3-1-4.7-1.5-7.4-1.5h-6.2v37.8h6.2c2.6,0,5.1-0.5,7.4-1.5
			c2.3-1,4.3-2.3,6.1-4.1c1.6-1.6,3.1-3.8,4.1-6.1C60.1,53.1,60.6,50.6,60.6,48z"/>
	</g>
</g>
</svg>
