<?xml version="1.0" encoding="utf-8"?>
<!-- Generator: Adobe Illustrator 23.0.3, SVG Export Plug-In . SVG Version: 6.00 Build 0)  -->
<svg version="1.1" id="Layer_1" xmlns="http://www.w3.org/2000/svg" xmlns:xlink="http://www.w3.org/1999/xlink" x="0px" y="0px"
	 viewBox="0 0 398 96" style="enable-background:new 0 0 398 96;" xml:space="preserve">
<style type="text/css">
	.st0{enable-background:new    ;}
	.st1{fill:#EEEEEE;}
	.st2{fill:#FA2941;}
</style>
<g class="st0">
	<path class="st1" d="M85.4,34.7c0,1.8-0.2,3.5-0.7,5.1c-0.5,1.6-1.1,3.2-1.9,4.6c-0.8,1.4-1.8,2.7-3,3.9c-1.2,1.2-2.5,2.2-3.9,3
		c-1.4,0.8-3,1.5-4.6,1.9c-1.6,0.5-3.3,0.7-5.1,0.7H54.6V15.5h11.6c1.8,0,3.5,0.2,5.1,0.7c1.6,0.5,3.2,1.1,4.6,1.9
		c1.4,0.8,2.7,1.8,3.9,3c1.2,1.2,2.2,2.5,3,3.9c0.8,1.4,1.5,3,1.9,4.6C85.2,31.3,85.4,33,85.4,34.7z M77.7,34.7
		c0-1.6-0.3-3.1-0.9-4.5c-0.6-1.4-1.4-2.6-2.5-3.7c-1-1-2.3-1.9-3.7-2.5c-1.4-0.6-2.9-0.9-4.5-0.9h-3.8v23.1h3.8
		c1.6,0,3.1-0.3,4.5-0.9c1.4-0.6,2.6-1.4,3.7-2.5c1-1,1.9-2.3,2.5-3.7C77.4,37.8,77.7,36.3,77.7,34.7z"/>
	<path class="st1" d="M119.3,15.5L106.6,54h-7.7L86.3,15.5h8.8l7.7,25.7l7.7-25.7H119.3z"/>
	<path class="st1" d="M149.9,54h-27V15.5h7.7v30.8h19.3V54z"/>
	<path class="st1" d="M161.6,54h-7.7V15.5h15.4c1.4,0,2.8,0.2,4.1,0.6c1.3,0.4,2.5,0.9,3.7,1.6c1.1,0.7,2.2,1.5,3.1,2.4
		c0.9,0.9,1.7,2,2.4,3.1c0.7,1.1,1.2,2.4,1.6,3.7c0.4,1.3,0.6,2.7,0.6,4.1c0,2.1-0.4,4.1-1.2,6s-1.9,3.5-3.3,4.9s-3,2.5-4.9,3.3
		c-1.9,0.8-3.9,1.2-6,1.2h-7.7V54z M161.6,23.2v15.4h7.7c1.1,0,2-0.2,3-0.6c0.9-0.4,1.7-1,2.4-1.7c0.7-0.7,1.2-1.5,1.7-2.5
		c0.4-0.9,0.6-1.9,0.6-3s-0.2-2.1-0.6-3c-0.4-0.9-1-1.8-1.7-2.5c-0.7-0.7-1.5-1.2-2.4-1.7c-0.9-0.4-1.9-0.6-3-0.6H161.6z"/>
	<path class="st1" d="M212.3,54h-7.7V15.5h7.7v15.4h15.4V15.5h7.7V54h-7.7V38.6h-15.4V54z"/>
	<path class="st1" d="M273,54h-7.7v-7.7h-15.4V54h-7.7V30.9c0-2.1,0.4-4.1,1.2-6c0.8-1.9,1.9-3.5,3.3-4.9c1.4-1.4,3-2.5,4.9-3.3
		c1.9-0.8,3.9-1.2,6-1.2s4.1,0.4,6,1.2c1.9,0.8,3.5,1.9,4.9,3.3s2.5,3,3.3,4.9s1.2,3.9,1.2,6V54z M265.3,38.6v-7.7
		c0-1.1-0.2-2.1-0.6-3c-0.4-0.9-1-1.8-1.7-2.5c-0.7-0.7-1.5-1.2-2.5-1.7c-0.9-0.4-1.9-0.6-3-0.6s-2.1,0.2-3,0.6
		c-0.9,0.4-1.8,1-2.5,1.7c-0.7,0.7-1.2,1.5-1.7,2.5c-0.4,0.9-0.6,1.9-0.6,3v7.7H265.3z"/>
	<path class="st1" d="M309.8,38.6c0,2.1-0.4,4.1-1.2,6s-1.9,3.5-3.3,4.9s-3,2.5-4.9,3.3c-1.9,0.8-3.9,1.2-6,1.2
		c-2.1,0-4.1-0.4-6-1.2c-1.9-0.8-3.5-1.9-4.9-3.3c-1.4-1.4-2.5-3-3.3-4.9c-0.8-1.9-1.2-3.9-1.2-6V15.5h7.7v23.1c0,1.1,0.2,2.1,0.6,3
		s1,1.7,1.7,2.4c0.7,0.7,1.5,1.2,2.5,1.7c0.9,0.4,1.9,0.6,3,0.6c1.1,0,2.1-0.2,3-0.6c0.9-0.4,1.8-1,2.5-1.7c0.7-0.7,1.2-1.5,1.7-2.4
		c0.4-0.9,0.6-1.9,0.6-3V15.5h7.7V38.6z"/>
	<path class="st1" d="M314.2,27c0-1.6,0.3-3.1,0.9-4.5s1.4-2.6,2.5-3.7c1-1,2.3-1.9,3.7-2.5s2.9-0.9,4.5-0.9h17.7v7.7h-17.7
		c-0.5,0-1,0.1-1.5,0.3s-0.9,0.5-1.2,0.8c-0.3,0.3-0.6,0.8-0.8,1.2c-0.2,0.5-0.3,1-0.3,1.5s0.1,1,0.3,1.5c0.2,0.5,0.5,0.9,0.8,1.2
		c0.3,0.3,0.8,0.6,1.2,0.8c0.5,0.2,1,0.3,1.5,0.3h7.7c1.6,0,3.1,0.3,4.5,0.9c1.4,0.6,2.6,1.4,3.7,2.5c1,1,1.9,2.3,2.5,3.7
		c0.6,1.4,0.9,2.9,0.9,4.5s-0.3,3.1-0.9,4.5c-0.6,1.4-1.4,2.6-2.5,3.7c-1,1-2.3,1.9-3.7,2.5c-1.4,0.6-2.9,0.9-4.5,0.9h-17.1v-7.7
		h17.1c0.5,0,1-0.1,1.5-0.3c0.5-0.2,0.9-0.5,1.2-0.8c0.3-0.3,0.6-0.8,0.8-1.2c0.2-0.5,0.3-1,0.3-1.5s-0.1-1-0.3-1.5
		c-0.2-0.5-0.5-0.9-0.8-1.2c-0.3-0.3-0.8-0.6-1.2-0.8c-0.5-0.2-1-0.3-1.5-0.3h-7.7c-1.6,0-3.1-0.3-4.5-0.9c-1.4-0.6-2.6-1.4-3.7-2.5
		c-1-1-1.9-2.3-2.5-3.7C314.5,30.1,314.2,28.6,314.2,27z"/>
</g>
<g class="st0">
	<path class="st2" d="M94.4,83h-2.7V72.4h-3.5v-2.3h9.7v2.3h-3.5V83z"/>
	<path class="st2" d="M111.5,76.6c0,2.1-0.5,3.8-1.6,4.9s-2.6,1.7-4.5,1.7s-3.5-0.6-4.5-1.7s-1.6-2.8-1.6-4.9s0.5-3.8,1.6-4.9
		s2.6-1.7,4.5-1.7s3.5,0.6,4.5,1.7S111.5,74.4,111.5,76.6z M102.1,76.6c0,1.4,0.3,2.5,0.8,3.2s1.4,1.1,2.4,1.1
		c2.2,0,3.3-1.4,3.3-4.3c0-2.9-1.1-4.3-3.2-4.3c-1.1,0-1.9,0.4-2.5,1.1C102.4,74,102.1,75.1,102.1,76.6z"/>
	<path class="st2" d="M125.8,76.6c0,2.1-0.5,3.8-1.6,4.9s-2.6,1.7-4.5,1.7s-3.5-0.6-4.5-1.7s-1.6-2.8-1.6-4.9s0.5-3.8,1.6-4.9
		s2.6-1.7,4.5-1.7s3.5,0.6,4.5,1.7S125.8,74.4,125.8,76.6z M116.5,76.6c0,1.4,0.3,2.5,0.8,3.2s1.4,1.1,2.4,1.1
		c2.2,0,3.3-1.4,3.3-4.3c0-2.9-1.1-4.3-3.2-4.3c-1.1,0-1.9,0.4-2.5,1.1C116.7,74,116.5,75.1,116.5,76.6z"/>
	<path class="st2" d="M128.5,83V70.2h2.7v10.6h5.2V83H128.5z"/>
	<path class="st2" d="M138.7,70.2h4c1.8,0,3.1,0.3,4,0.8c0.8,0.5,1.2,1.3,1.2,2.5c0,0.8-0.2,1.4-0.5,1.9s-0.8,0.8-1.4,0.9v0.1
		c0.8,0.2,1.4,0.5,1.8,1s0.5,1.2,0.5,2c0,1.2-0.4,2.1-1.3,2.7s-2,1-3.4,1h-4.8V70.2z M141.4,75.2h1.6c0.7,0,1.3-0.1,1.6-0.3
		s0.5-0.6,0.5-1.1c0-0.5-0.2-0.8-0.5-1.1c-0.4-0.2-0.9-0.3-1.7-0.3h-1.4V75.2z M141.4,77.4v3.3h1.8c0.8,0,1.3-0.1,1.7-0.4
		s0.5-0.7,0.5-1.3c0-1.1-0.8-1.6-2.3-1.6H141.4z"/>
	<path class="st2" d="M162.4,76.6c0,2.1-0.5,3.8-1.6,4.9s-2.6,1.7-4.5,1.7s-3.5-0.6-4.5-1.7s-1.6-2.8-1.6-4.9s0.5-3.8,1.6-4.9
		s2.6-1.7,4.5-1.7s3.5,0.6,4.5,1.7S162.4,74.4,162.4,76.6z M153.1,76.6c0,1.4,0.3,2.5,0.8,3.2s1.4,1.1,2.4,1.1
		c2.2,0,3.3-1.4,3.3-4.3c0-2.9-1.1-4.3-3.2-4.3c-1.1,0-1.9,0.4-2.5,1.1C153.3,74,153.1,75.1,153.1,76.6z"/>
	<path class="st2" d="M175.5,83h-3.1l-3-4.9l-3,4.9h-2.9l4.3-6.6l-4-6.2h3l2.8,4.6l2.7-4.6h2.9l-4,6.4L175.5,83z"/>
	<path class="st2" d="M184.5,83h-2.7V70.2h7.4v2.2h-4.7v3.3h4.4v2.2h-4.4V83z"/>
	<path class="st2" d="M203.3,76.6c0,2.1-0.5,3.8-1.6,4.9s-2.6,1.7-4.5,1.7s-3.5-0.6-4.5-1.7s-1.6-2.8-1.6-4.9s0.5-3.8,1.6-4.9
		s2.6-1.7,4.5-1.7s3.5,0.6,4.5,1.7S203.3,74.4,203.3,76.6z M193.9,76.6c0,1.4,0.3,2.5,0.8,3.2s1.4,1.1,2.4,1.1
		c2.2,0,3.3-1.4,3.3-4.3c0-2.9-1.1-4.3-3.2-4.3c-1.1,0-1.9,0.4-2.5,1.1C194.2,74,193.9,75.1,193.9,76.6z"/>
	<path class="st2" d="M208.7,78.1V83H206V70.2h3.7c1.7,0,3,0.3,3.9,1c0.8,0.6,1.3,1.6,1.3,2.9c0,0.8-0.2,1.4-0.6,2
		c-0.4,0.6-1,1-1.8,1.4c1.9,2.9,3.2,4.8,3.8,5.6h-3l-3.1-4.9H208.7z M208.7,75.9h0.9c0.9,0,1.5-0.1,1.9-0.4s0.6-0.7,0.6-1.4
		c0-0.6-0.2-1-0.6-1.3s-1.1-0.4-1.9-0.4h-0.8V75.9z"/>
	<path class="st2" d="M235.1,83H232l-1.7-6.8c-0.1-0.2-0.2-0.7-0.3-1.5c-0.2-0.8-0.2-1.3-0.3-1.5c0,0.3-0.1,0.8-0.3,1.5
		s-0.2,1.2-0.3,1.5l-1.7,6.7h-3.1l-3.3-12.8h2.7l1.6,7c0.3,1.3,0.5,2.4,0.6,3.4c0-0.3,0.1-0.9,0.2-1.6c0.1-0.7,0.2-1.2,0.4-1.6
		l1.9-7.2h2.6l1.9,7.2c0.1,0.3,0.2,0.8,0.3,1.5s0.2,1.2,0.3,1.7c0.1-0.5,0.2-1,0.3-1.7c0.1-0.7,0.2-1.2,0.4-1.7l1.6-7h2.7L235.1,83z
		"/>
	<path class="st2" d="M247.3,83h-7.4V70.2h7.4v2.2h-4.7v2.8h4.4v2.2h-4.4v3.3h4.7V83z"/>
	<path class="st2" d="M250,70.2h4c1.8,0,3.1,0.3,4,0.8c0.8,0.5,1.2,1.3,1.2,2.5c0,0.8-0.2,1.4-0.5,1.9s-0.8,0.8-1.4,0.9v0.1
		c0.8,0.2,1.4,0.5,1.8,1s0.5,1.2,0.5,2c0,1.2-0.4,2.1-1.3,2.7s-2,1-3.5,1H250V70.2z M252.7,75.2h1.6c0.7,0,1.3-0.1,1.6-0.3
		s0.5-0.6,0.5-1.1c0-0.5-0.2-0.8-0.5-1.1c-0.4-0.2-0.9-0.3-1.7-0.3h-1.4V75.2z M252.7,77.4v3.3h1.8c0.8,0,1.3-0.1,1.7-0.4
		s0.5-0.7,0.5-1.3c0-1.1-0.8-1.6-2.3-1.6H252.7z"/>
	<path class="st2" d="M277.5,76.5c0,2.1-0.6,3.7-1.8,4.9s-2.9,1.7-5.2,1.7h-3.6V70.2h4c2.1,0,3.7,0.6,4.9,1.7S277.5,74.5,277.5,76.5
		z M274.6,76.5c0-2.8-1.2-4.1-3.7-4.1h-1.5v8.4h1.2C273.3,80.8,274.6,79.3,274.6,76.5z"/>
	<path class="st2" d="M287.5,83h-7.4V70.2h7.4v2.2h-4.7v2.8h4.4v2.2h-4.4v3.3h4.7V83z"/>
	<path class="st2" d="M297.5,70.2h2.8L295.9,83h-3l-4.4-12.8h2.8l2.4,7.6c0.1,0.5,0.3,1,0.4,1.6s0.2,1,0.3,1.3
		c0.1-0.5,0.3-1.5,0.7-2.8L297.5,70.2z"/>
	<path class="st2" d="M309.5,79.4c0,1.2-0.4,2.1-1.3,2.7s-2,1-3.5,1c-1.4,0-2.6-0.3-3.6-0.8v-2.5c0.9,0.4,1.6,0.7,2.2,0.8
		s1.1,0.2,1.6,0.2c0.6,0,1.1-0.1,1.4-0.3s0.5-0.6,0.5-1c0-0.3-0.1-0.5-0.2-0.7c-0.1-0.2-0.3-0.4-0.6-0.6s-0.8-0.5-1.7-0.9
		c-0.8-0.4-1.4-0.7-1.8-1.1s-0.7-0.7-0.9-1.2s-0.4-1-0.4-1.6c0-1.1,0.4-2,1.2-2.7s1.8-1,3.2-1c0.7,0,1.3,0.1,1.9,0.2
		s1.2,0.4,1.9,0.7l-0.9,2.1c-0.7-0.3-1.3-0.5-1.7-0.6s-0.9-0.2-1.3-0.2c-0.5,0-0.9,0.1-1.2,0.4s-0.4,0.6-0.4,0.9
		c0,0.2,0.1,0.5,0.2,0.6c0.1,0.2,0.3,0.4,0.5,0.5c0.2,0.2,0.8,0.5,1.7,0.9c1.2,0.6,2,1.2,2.5,1.7C309.3,77.9,309.5,78.6,309.5,79.4z
		"/>
</g>
</svg>
