<svg xmlns="http://www.w3.org/2000/svg" xmlns:xlink="http://www.w3.org/1999/xlink" width="48" height="48" viewBox="0 0 48 48">
  <defs>
    <clipPath id="clip-Web_1920_1">
      <rect width="48" height="48"/>
    </clipPath>
  </defs>
  <g id="Web_1920_1" data-name="Web 1920 – 1" clip-path="url(#clip-Web_1920_1)">
    <g id="Rectangle_3" data-name="Rectangle 3" fill="#0c0a09" stroke="#e11d48" stroke-width="3">
      <rect width="48" height="48" rx="10" stroke="none"/>
      <rect x="1.5" y="1.5" width="45" height="45" rx="8.5" fill="none"/>
    </g>
    <path id="Path_1" data-name="Path 1" d="M7.232,23.691A6.874,6.874,0,0,1,3.25,22.584,6.893,6.893,0,0,1,.818,19.639,9.78,9.78,0,0,1,0,15.617,9.78,9.78,0,0,1,.818,11.6,6.893,6.893,0,0,1,3.25,8.65,6.874,6.874,0,0,1,7.232,7.544a6.661,6.661,0,0,1,2.9.569A7.726,7.726,0,0,1,12.22,9.57l-.935.81V0H15.15V23.379H11.5l-.187-2.65,1.122.81a9.768,9.768,0,0,1-2.26,1.574,6.642,6.642,0,0,1-2.946.577m.561-3.18a3.328,3.328,0,0,0,2.089-.623,3.643,3.643,0,0,0,1.2-1.722,7.615,7.615,0,0,0,.39-2.548,7.615,7.615,0,0,0-.39-2.548,3.643,3.643,0,0,0-1.2-1.722,3.328,3.328,0,0,0-2.089-.623,3.429,3.429,0,0,0-2.073.623,3.907,3.907,0,0,0-1.309,1.722,6.661,6.661,0,0,0-.452,2.548,6.661,6.661,0,0,0,.452,2.548A3.907,3.907,0,0,0,5.72,19.888a3.429,3.429,0,0,0,2.073.623" transform="translate(7.85 12)" fill="#fff"/>
    <path id="Path_2" data-name="Path 2" d="M7.2,23.379V0h3.865V10.069l-.873-.686A17,17,0,0,1,12.328,8.12a6.108,6.108,0,0,1,2.759-.577,5.69,5.69,0,0,1,3.351.912,5.27,5.27,0,0,1,1.9,2.525,10.552,10.552,0,0,1,.608,3.733v8.666H17.082V14.994a5.875,5.875,0,0,0-.7-3.226,2.557,2.557,0,0,0-2.291-1.044,3.674,3.674,0,0,0-2.221.631,5.816,5.816,0,0,0-1.52,1.707l.717-2.089V23.379Z" transform="translate(18.8 12)" fill="#fff"/>
  </g>
</svg>
