<?xml version="1.0" standalone="no"?>
<!DOCTYPE svg PUBLIC "-//W3C//DTD SVG 20010904//EN"
 "http://www.w3.org/TR/2001/REC-SVG-20010904/DTD/svg10.dtd">
<svg version="1.0" xmlns="http://www.w3.org/2000/svg"
 width="700.000000pt" height="700.000000pt" viewBox="0 0 700.000000 700.000000"
 preserveAspectRatio="xMidYMid meet">
<metadata>
Created by potrace 1.11, written by Peter Selinger 2001-2013
</metadata>
<g transform="translate(0.000000,700.000000) scale(0.100000,-0.100000)"
fill="#000000" stroke="none">
<path d="M1660 3500 l0 -2291 818 4 c904 4 894 3 1157 72 178 46 256 75 420
155 239 116 399 227 579 400 281 271 451 542 588 940 64 187 92 332 109 553
44 591 -147 1195 -516 1636 -85 101 -265 278 -350 342 -295 226 -694 396
-1070 456 -84 14 -227 17 -917 20 l-818 4 0 -2291z m1565 1380 c292 -42 604
-203 806 -416 126 -134 250 -335 313 -512 83 -233 97 -531 35 -777 -26 -102
-130 -318 -211 -438 -76 -112 -235 -273 -341 -346 -114 -78 -270 -155 -383
-190 -173 -53 -246 -61 -575 -61 l-299 0 0 1375 0 1375 293 0 c160 0 324 -5
362 -10z"/>
</g>
</svg>
