<?xml version="1.0" encoding="UTF-8"?>
<svg id="Layer_2" data-name="Layer 2" xmlns="http://www.w3.org/2000/svg" viewBox="0 0 377.94 91.69">
  <g id="Layer_1-2" data-name="Layer 1">
    <g>
      <path d="m33.46,26.07c-1.07-.75-2.2-1.43-3.42-2.01-2.34-1.12-5.21-1.69-8.6-1.69-4.68,0-8.62,1.09-11.81,3.28-3.19,2.19-5.59,5.1-7.21,8.73-1.62,3.64-2.43,7.61-2.43,11.92s.81,8.29,2.43,11.92c1.62,3.64,4.02,6.55,7.21,8.74,3.19,2.19,7.12,3.28,11.81,3.28,3.51,0,6.42-.57,8.73-1.71,1.26-.62,2.5-1.38,3.71-2.25l.21,3.04h10.81V0h-11.46v26.07Zm-4.16,32.9c-1.6,1.23-3.67,1.85-6.19,1.85s-4.45-.62-6.15-1.85c-1.69-1.23-2.99-2.93-3.88-5.11-.89-2.17-1.34-4.69-1.34-7.56s.45-5.38,1.34-7.56c.89-2.17,2.19-3.87,3.88-5.11,1.69-1.23,3.74-1.85,6.15-1.85,2.53,0,4.59.62,6.19,1.85,1.6,1.23,2.79,2.93,3.56,5.11.77,2.17,1.16,4.69,1.16,7.56s-.39,5.38-1.16,7.56c-.77,2.17-1.96,3.88-3.56,5.11Z"/>
      <polygon points="73.11 55.09 61.74 23.11 50.47 23.11 68.21 69.32 78.01 69.32 95.76 23.11 84.48 23.11 73.11 55.09"/>
      <path d="m113.29,58.67c-.29-1.03-.44-2.78-.44-5.25V0h-11.46v58.14c0,2.22.42,4.24,1.25,6.08.83,1.83,2.12,3.3,3.86,4.39,1.74,1.09,3.98,1.64,6.72,1.64h4.16l1.02-9.43c-1.51,0-2.67-.1-3.47-.3-.8-.2-1.35-.82-1.64-1.85Z"/>
      <path d="m161.24,25.65c-3.08-2.19-6.89-3.28-11.42-3.28-3.6,0-6.66.66-9.15,1.96-1.58.83-3.07,1.85-4.5,3.03l-1.23-4.25h-9.24v68.58h11.46v-25.2c1.3.94,2.6,1.72,3.88,2.28,2.25.99,5.18,1.48,8.78,1.48,4.53,0,8.33-1.09,11.42-3.28,3.08-2.19,5.41-5.1,7-8.74,1.59-3.63,2.38-7.61,2.38-11.92s-.79-8.29-2.38-11.92c-1.59-3.64-3.92-6.55-7-8.73Zm-5.2,31.13c-1.9,2.7-4.55,4.04-7.97,4.04-2.65,0-4.82-.62-6.52-1.85-1.69-1.23-2.94-2.93-3.74-5.11-.8-2.17-1.2-4.69-1.2-7.56s.4-5.38,1.2-7.56c.8-2.17,2.05-3.87,3.74-5.11,1.69-1.23,3.87-1.85,6.52-1.85,3.42,0,6.08,1.34,7.97,4.02,1.89,2.68,2.84,6.18,2.84,10.49s-.95,7.77-2.84,10.47Z"/>
      <rect x="177.46" y="56.75" width="12.02" height="12.57"/>
      <path d="m232.32,25.07c-2.56-1.8-5.87-2.7-9.94-2.7-3.17,0-5.9.57-8.18,1.71-1.31.65-2.55,1.35-3.74,2.07V0h-11.46v69.32h11.46v-33.48c.74-.83,1.54-1.56,2.38-2.17,1.71-1.25,3.91-1.87,6.58-1.87,3.14,0,5.41,1.03,6.79,3.1,1.39,2.06,2.08,5.25,2.08,9.57v24.86h11.46v-25.69c0-4.19-.6-7.88-1.8-11.07-1.2-3.19-3.08-5.68-5.64-7.49Z"/>
      <path d="m285.65,60.4c-.59-.28-.99-.93-1.2-1.96-.22-1.03-.32-2.7-.32-5.01v-12.48c0-4.47-.68-8.06-2.03-10.79-1.36-2.73-3.28-4.71-5.78-5.94-2.5-1.23-5.47-1.85-8.92-1.85-2.87,0-5.69.34-8.48,1.02-2.79.68-5.57,1.69-8.34,3.05l1.02,9.34c2.46-1.2,4.67-2.09,6.63-2.66,1.96-.57,3.97-.85,6.03-.85,2.96,0,5.05.6,6.29,1.8,1.23,1.2,1.91,3.13,2.03,5.78-1.73.06-3.72.26-5.98.6-2.26.34-4.56.87-6.89,1.59-2.33.72-4.48,1.71-6.47,2.96-1.99,1.25-3.59,2.8-4.81,4.67-1.22,1.86-1.83,4.11-1.83,6.72,0,2.93.6,5.42,1.8,7.49,1.2,2.06,2.82,3.64,4.85,4.74,2.03,1.09,4.28,1.64,6.75,1.64,2.77,0,5.45-.47,8.02-1.41,2.57-.94,4.61-2.26,6.12-3.95.58,1.08,1.36,2.02,2.31,2.82.96.8,2.1,1.43,3.44,1.87,1.34.45,2.87.67,4.6.67h4.16l1.02-9.43h-1.48c-1.11,0-1.96-.14-2.54-.42Zm-12.99-2.26c-1.2,1.14-2.56,1.98-4.07,2.52s-2.77.81-3.79.81c-2.16,0-3.73-.45-4.71-1.36-.99-.91-1.48-2.3-1.48-4.18s.72-3.33,2.17-4.53c1.45-1.2,3.25-2.11,5.41-2.73,2.16-.62,4.31-.97,6.47-1.06v10.54Z"/>
      <path d="m324.52,56.68c-.68.81-1.43,1.51-2.24,2.1-1.71,1.23-3.86,1.85-6.45,1.85-3.24,0-5.57-1.04-7-3.12-1.43-2.08-2.15-5.26-2.15-9.54v-24.86h-11.46v24.86c0,4.34.63,8.19,1.89,11.53,1.26,3.34,3.33,5.97,6.19,7.88s6.7,2.87,11.51,2.87c2.37,0,4.75-.6,7.14-1.8,1.2-.6,2.24-1.23,3.11-1.89l.19,2.77h10.72V23.11h-11.46v33.58Z"/>
      <path d="m377.18,51.74c-.51-1.37-1.29-2.59-2.33-3.67-1.05-1.08-2.37-2.06-3.95-2.96-1.59-.89-3.46-1.76-5.62-2.59-3.33-1.29-5.75-2.39-7.26-3.28-1.51-.89-2.26-2.23-2.26-4.02,0-1.48.54-2.62,1.62-3.42,1.08-.8,2.6-1.2,4.58-1.2,2.5,0,4.79.47,6.89,1.41,2.09.94,4.17,2.13,6.24,3.58l1.02-9.8c-1.97-1.11-4.12-1.99-6.45-2.63-2.33-.65-4.95-.97-7.88-.97-3.51,0-6.55.57-9.1,1.71-2.56,1.14-4.53,2.73-5.92,4.76-1.39,2.03-2.08,4.38-2.08,7.02s.52,4.71,1.55,6.45,2.54,3.23,4.53,4.46c1.99,1.23,4.4,2.37,7.23,3.42,1.88.71,3.45,1.37,4.71,1.99s2.21,1.31,2.84,2.08c.63.77.95,1.76.95,2.96,0,1.6-.6,2.77-1.8,3.51-1.2.74-2.94,1.11-5.22,1.11-2.53,0-4.94-.42-7.23-1.27-2.3-.85-4.63-1.96-7-3.35l-1.02,9.8c2.46,1.11,4.92,1.96,7.37,2.54s5.2.88,8.25.88c3.88,0,7.17-.54,9.87-1.62,2.7-1.08,4.74-2.64,6.15-4.69,1.4-2.05,2.1-4.54,2.1-7.46,0-1.79-.25-3.37-.76-4.74Z"/>
    </g>
  </g>
</svg>